<?xml version="1.0" encoding="UTF-8"?>
<svg id="PRINT" xmlns="http://www.w3.org/2000/svg" version="1.1" viewBox="0 0 500 500">
  <!-- Generator: Adobe Illustrator 29.5.0, SVG Export Plug-In . SVG Version: 2.1.0 Build 137)  -->
  <defs>
    <style>
      .st0 {
        fill: #235091;
      }

      .st1 {
        fill: #fff;
      }
    </style>
  </defs>
  <g id="CUSTOM-group">
    <g>
      <path class="st0" d="M479.99,50.99c-11.74-15.56-29.65-24.49-49.14-24.49h-8.25v-4.74c0-7.85-6.36-14.21-14.21-14.21s-14.21,6.36-14.21,14.21v37.88c0,7.84,6.36,14.21,14.21,14.21s14.21-6.36,14.21-14.21v-4.74h8.25c10.5,0,20.14,4.81,26.46,13.19,6.32,8.38,8.29,18.97,5.41,29.07l-37.7,131.96c-10.52,36.83-44.62,62.54-82.92,62.54s-72.4-25.72-82.92-62.54l-37.7-131.96c-2.88-10.09-.91-20.69,5.41-29.07,6.32-8.38,15.97-13.19,26.46-13.19h8.25v4.74c0,7.84,6.36,14.21,14.21,14.21s14.21-6.36,14.21-14.21V21.76c0-7.85-6.36-14.21-14.21-14.21s-14.21,6.36-14.21,14.21v4.74h-8.25c-19.49,0-37.41,8.93-49.14,24.49-11.74,15.56-15.4,35.24-10.04,53.98l37.7,131.96c6.9,24.15,21.15,44.91,41.2,60.03,4.3,3.24,8.78,6.13,13.4,8.71l41.43,97.79v10.25c0,27.74-22.57,50.31-50.31,50.31s-50.31-22.57-50.31-50.31v-97.42c0-44.91-36.54-81.45-81.44-81.45s-81.45,36.54-81.45,81.45v33.63c-32.38,6.6-56.82,35.3-56.82,69.6,0,39.16,31.86,71.03,71.03,71.03s71.03-31.86,71.03-71.03c0-34.3-24.44-63-56.82-69.6v-33.63c0-29.24,23.79-53.03,53.03-53.03s53.03,23.79,53.03,53.03v97.42c0,43.41,35.32,78.73,78.73,78.73s78.73-35.32,78.73-78.73v-10.25l41.43-97.79c4.62-2.58,9.11-5.47,13.4-8.71,20.05-15.12,34.3-35.88,41.2-60.03l37.7-131.96c5.36-18.74,1.69-38.42-10.05-53.98h0ZM121.2,419.52c0,23.5-19.12,42.62-42.62,42.62s-42.62-19.12-42.62-42.62,19.12-42.62,42.62-42.62,42.62,19.12,42.62,42.62ZM342.1,364.16l-19.37-45.72c6.34,1.07,12.81,1.63,19.37,1.63s13.03-.56,19.37-1.63l-19.37,45.72Z"/>
      <path class="st1" d="M78.58,405.31c7.85,0,14.21,6.36,14.21,14.21s-6.36,14.21-14.21,14.21-14.21-6.36-14.21-14.21,6.36-14.21,14.21-14.21Z"/>
    </g>
  </g>
  <path class="st1" d="M295.18,200.28v-93.57h20.31l34.09,55.48-14.57-.13,34.49-55.34h19.52v93.57h-22.06v-29.14c0-8.02.2-15.24.6-21.66.4-6.42,1.09-12.79,2.07-19.12l2.54,6.95-25.93,40.24h-8.82l-25.4-39.97,2.54-7.22c.98,5.97,1.67,12.1,2.08,18.38.4,6.28.6,13.75.6,22.39v29.14h-22.06Z"/>
</svg>