<?xml version="1.0" encoding="UTF-8"?>
<svg id="PRINT" xmlns="http://www.w3.org/2000/svg" version="1.1" viewBox="0 0 500 500">
  <!-- Generator: Adobe Illustrator 29.5.0, SVG Export Plug-In . SVG Version: 2.1.0 Build 137)  -->
  <defs>
    <style>
      .st0 {
        fill: #fff;
      }
    </style>
  </defs>
  <g id="CUSTOM-group">
    <g>
      <path class="st0" d="M470.4,59.29c-11.25-14.91-28.41-23.47-47.09-23.47h-7.91v-4.54c0-7.52-6.1-13.61-13.61-13.61s-13.61,6.1-13.61,13.61v36.3c0,7.52,6.1,13.61,13.61,13.61s13.61-6.1,13.61-13.61v-4.54h7.91c10.06,0,19.3,4.61,25.36,12.64,6.06,8.03,7.95,18.18,5.18,27.85l-36.13,126.46c-10.08,35.29-42.76,59.93-79.46,59.93s-69.38-24.65-79.46-59.93l-36.13-126.46c-2.76-9.67-.87-19.82,5.18-27.85,6.06-8.03,15.3-12.64,25.36-12.64h7.91v4.54c0,7.52,6.09,13.61,13.61,13.61s13.61-6.1,13.61-13.61V31.29c0-7.52-6.1-13.61-13.61-13.61s-13.61,6.1-13.61,13.61v4.54h-7.91c-18.68,0-35.85,8.55-47.09,23.47-11.25,14.91-14.76,33.77-9.63,51.73l36.13,126.46c6.61,23.14,20.26,43.03,39.48,57.53,4.12,3.11,8.41,5.88,12.84,8.35l39.7,93.71v9.83c0,26.59-21.63,48.22-48.22,48.22s-48.22-21.63-48.22-48.22v-93.36c0-43.03-35.01-78.05-78.05-78.05s-78.05,35.01-78.05,78.05v32.23c-31.03,6.32-54.45,33.82-54.45,66.7,0,37.53,30.53,68.06,68.06,68.06s68.06-30.53,68.06-68.06c0-32.87-23.42-60.37-54.45-66.7v-32.23c0-28.02,22.8-50.82,50.82-50.82s50.82,22.8,50.82,50.82v93.36c0,41.6,33.84,75.44,75.44,75.44s75.44-33.84,75.44-75.44v-9.83l39.7-93.71c4.43-2.47,8.73-5.24,12.84-8.35,19.21-14.49,32.87-34.39,39.48-57.53l36.13-126.46c5.13-17.96,1.62-36.81-9.63-51.73h0ZM126.57,412.45c0,22.52-18.32,40.84-40.84,40.84s-40.84-18.32-40.84-40.84,18.32-40.84,40.84-40.84,40.84,18.32,40.84,40.84ZM338.26,359.4l-18.56-43.81c6.08,1.03,12.28,1.56,18.56,1.56s12.48-.53,18.56-1.56l-18.56,43.81Z"/>
      <path class="st0" d="M85.73,398.83c7.52,0,13.61,6.09,13.61,13.61s-6.09,13.61-13.61,13.61-13.61-6.09-13.61-13.61,6.09-13.61,13.61-13.61Z"/>
    </g>
  </g>
  <path class="st0" d="M293.29,202.35v-89.67h19.47l32.67,53.16-13.96-.13,33.05-53.03h18.7v89.67h-21.14v-27.93c0-7.69.19-14.6.58-20.75.38-6.15,1.04-12.25,1.98-18.32l2.44,6.66-24.85,38.56h-8.46l-24.34-38.3,2.43-6.92c.94,5.72,1.6,11.59,1.99,17.61.38,6.02.58,13.17.58,21.46v27.93h-21.14Z"/>
</svg>